<?xml version="1.0" encoding="UTF-8"?>
<svg enable-background="new 0 0 200 200" version="1.1" viewBox="0 0 200 200" xml:space="preserve" xmlns="http://www.w3.org/2000/svg">
<style type="text/css">
	.st0{fill:url(#circle70_00000177468721607303748030000015380839826925384601_);}
	.st1{fill:#FFFFFF;stroke:#014C46;stroke-width:1.1331;stroke-miterlimit:10;}
	.st2{fill:url(#polygon102_00000178200583963262591950000014712108070207794359_);}
	.st3{fill:#FFFFFF;stroke:#014C46;stroke-width:1.625;stroke-miterlimit:10;}
	.st4{fill:#1D1D1B;stroke:#FFFFFF;stroke-width:2.6008;stroke-linecap:round;stroke-miterlimit:10;}
	.st5{fill:none;stroke:#FFFFFF;stroke-width:2.6008;stroke-linecap:round;stroke-miterlimit:10;}
	.st6{fill:#FFFFFF;}
	.st7{fill:#014C46;}
</style><g fill-opacity=".99602">
<path d="m104.56 10h-59.561c-5.54 0-10 4.46-10 10v160c0 5.54 4.46 10 10 10h110c5.54 0 10-4.46 10-10v-110.09l-60.439-59.906z" fill="#36c"/><path d="m165 69.906-60.439-59.906v49.906c0 5.54 4.46 10 10 10z" fill="#bfbfbf"/><path d="m69.844 166.87q-2.6562 4.375-6.4062 6.5938-3.7188 2.2188-6.8438 2.2188-4.375 0-7.875-3.7812-3.4688-3.7812-3.4688-11.469 0-6.0625 2.3125-10.812 2.3125-4.7812 6.1875-7.5312 3.875-2.7812 9.5938-2.7812 1.6562 0 5 0.34375 0.5 0.0625 1.5 0.15625v-15.531h5.8438v50.438h-5.8438zm0-6.9062v-14.969q-3.0938-0.8125-5.75-0.8125-5.375 0-8.9688 4.1562-3.5625 4.1562-3.5625 11.312 0 5.1875 1.9375 7.8438 1.9688 2.625 4.4688 2.625 2.7188 0 6-2.75t5.875-7.4062zm18.719 14.75h-6.7188l13.719-18.281-12.812-16.625h7.4375l9.0938 11.719 8.8438-11.719h6.5938l-12.125 16.062 14.406 18.844h-7.4688l-10.625-13.906zm42.906 0v-27.156h-7.75v-4.8438h7.75v-1.625q0-6.9062 1.5625-10.219t4.8125-5.4375q3.2812-2.125 8.6562-2.125 4.0625 0 8.25 0.84375v5.5312q-4.5312-1.5-8.0312-1.5-2.7812 0-4.9062 1.0312t-3.3438 3.375q-1.1875 2.3125-1.1875 7.875v2.25h13.844v4.8438h-13.844v27.156z" fill="#fff" stroke-width="5" aria-label="dxf"/></g></svg>
